<svg version="1.1" viewBox="0.0 0.0 596.4251968503937 451.5223097112861" fill="none" stroke="none" stroke-linecap="square" stroke-miterlimit="10" xmlns:xlink="http://www.w3.org/1999/xlink" xmlns="http://www.w3.org/2000/svg"><clipPath id="p.0"><path d="m0 0l596.4252 0l0 451.5223l-596.4252 0l0 -451.5223z" clip-rule="nonzero"/></clipPath><g clip-path="url(#p.0)"><path fill="#000000" fill-opacity="0.0" d="m0 0l596.4252 0l0 451.5223l-596.4252 0z" fill-rule="evenodd"/><path fill="#000000" fill-opacity="0.0" d="m8.393701 47.564304l53.165356 0l0 48.50394l-53.165356 0z" fill-rule="evenodd"/><path stroke="#326273" stroke-width="2.0" stroke-linejoin="round" stroke-linecap="butt" d="m8.393701 47.564304l53.165356 0l0 48.50394l-53.165356 0z" fill-rule="evenodd"/><path fill="#000000" fill-opacity="0.0" d="m8.393701 96.068245l53.165356 0l0 48.50393l-53.165356 0z" fill-rule="evenodd"/><path stroke="#326273" stroke-width="2.0" stroke-linejoin="round" stroke-linecap="butt" d="m8.393701 96.068245l53.165356 0l0 48.50393l-53.165356 0z" fill-rule="evenodd"/><path fill="#000000" fill-opacity="0.0" d="m8.393701 144.57217l53.165356 0l0 48.503937l-53.165356 0z" fill-rule="evenodd"/><path stroke="#326273" stroke-width="2.0" stroke-linejoin="round" stroke-linecap="butt" d="m8.393701 144.57217l53.165356 0l0 48.503937l-53.165356 0z" fill-rule="evenodd"/><path fill="#000000" fill-opacity="0.0" d="m8.393701 193.07611l53.165356 0l0 48.503937l-53.165356 0z" fill-rule="evenodd"/><path stroke="#326273" stroke-width="2.0" stroke-linejoin="round" stroke-linecap="butt" d="m8.393701 193.07611l53.165356 0l0 48.503937l-53.165356 0z" fill-rule="evenodd"/><path fill="#000000" fill-opacity="0.0" d="m8.393701 241.58005l53.165356 0l0 48.503937l-53.165356 0z" fill-rule="evenodd"/><path stroke="#326273" stroke-width="2.0" stroke-linejoin="round" stroke-linecap="butt" d="m8.393701 241.58005l53.165356 0l0 48.503937l-53.165356 0z" fill-rule="evenodd"/><path fill="#000000" fill-opacity="0.0" d="m8.393701 290.08398l53.165356 0l0 48.503937l-53.165356 0z" fill-rule="evenodd"/><path stroke="#326273" stroke-width="2.0" stroke-linejoin="round" stroke-linecap="butt" d="m8.393701 290.08398l53.165356 0l0 48.503937l-53.165356 0z" fill-rule="evenodd"/><path fill="#000000" fill-opacity="0.0" d="m8.393701 338.58792l53.165356 0l0 48.503937l-53.165356 0z" fill-rule="evenodd"/><path stroke="#326273" stroke-width="2.0" stroke-linejoin="round" stroke-linecap="butt" d="m8.393701 338.58792l53.165356 0l0 48.503937l-53.165356 0z" fill-rule="evenodd"/><path fill="#000000" fill-opacity="0.0" d="m8.393701 387.09186l53.165356 0l0 48.503937l-53.165356 0z" fill-rule="evenodd"/><path stroke="#326273" stroke-width="2.0" stroke-linejoin="round" stroke-linecap="butt" d="m8.393701 387.09186l53.165356 0l0 48.503937l-53.165356 0z" fill-rule="evenodd"/><path fill="#000000" fill-opacity="0.0" d="m139.51181 96.068245l53.16536 0l0 48.50393l-53.16536 0z" fill-rule="evenodd"/><path stroke="#326273" stroke-width="2.0" stroke-linejoin="round" stroke-linecap="butt" d="m139.51181 96.068245l53.16536 0l0 48.50393l-53.16536 0z" fill-rule="evenodd"/><path fill="#000000" fill-opacity="0.0" d="m139.51181 144.57217l53.16536 0l0 48.503937l-53.16536 0z" fill-rule="evenodd"/><path stroke="#326273" stroke-width="2.0" stroke-linejoin="round" stroke-linecap="butt" d="m139.51181 144.57217l53.16536 0l0 48.503937l-53.16536 0z" fill-rule="evenodd"/><path fill="#000000" fill-opacity="0.0" d="m139.51181 193.07611l53.16536 0l0 48.503937l-53.16536 0z" fill-rule="evenodd"/><path stroke="#326273" stroke-width="2.0" stroke-linejoin="round" stroke-linecap="butt" d="m139.51181 193.07611l53.16536 0l0 48.503937l-53.16536 0z" fill-rule="evenodd"/><path fill="#000000" fill-opacity="0.0" d="m139.51181 241.58005l53.16536 0l0 48.503937l-53.16536 0z" fill-rule="evenodd"/><path stroke="#326273" stroke-width="2.0" stroke-linejoin="round" stroke-linecap="butt" d="m139.51181 241.58005l53.16536 0l0 48.503937l-53.16536 0z" fill-rule="evenodd"/><path fill="#000000" fill-opacity="0.0" d="m139.51181 290.08398l53.16536 0l0 48.503937l-53.16536 0z" fill-rule="evenodd"/><path stroke="#326273" stroke-width="2.0" stroke-linejoin="round" stroke-linecap="butt" d="m139.51181 290.08398l53.16536 0l0 48.503937l-53.16536 0z" fill-rule="evenodd"/><path fill="#000000" fill-opacity="0.0" d="m139.51181 338.58792l53.16536 0l0 48.503937l-53.16536 0z" fill-rule="evenodd"/><path stroke="#326273" stroke-width="2.0" stroke-linejoin="round" stroke-linecap="butt" d="m139.51181 338.58792l53.16536 0l0 48.503937l-53.16536 0z" fill-rule="evenodd"/><path fill="#000000" fill-opacity="0.0" d="m401.7533 96.068245l53.165344 0l0 48.50393l-53.165344 0z" fill-rule="evenodd"/><path stroke="#e39774" stroke-width="2.0" stroke-linejoin="round" stroke-linecap="butt" d="m401.7533 96.068245l53.165344 0l0 48.50393l-53.165344 0z" fill-rule="evenodd"/><path fill="#000000" fill-opacity="0.0" d="m401.7533 144.57217l53.165344 0l0 48.503937l-53.165344 0z" fill-rule="evenodd"/><path stroke="#e39774" stroke-width="2.0" stroke-linejoin="round" stroke-linecap="butt" d="m401.7533 144.57217l53.165344 0l0 48.503937l-53.165344 0z" fill-rule="evenodd"/><path fill="#000000" fill-opacity="0.0" d="m401.7533 193.07611l53.165344 0l0 48.503937l-53.165344 0z" fill-rule="evenodd"/><path stroke="#e39774" stroke-width="2.0" stroke-linejoin="round" stroke-linecap="butt" d="m401.7533 193.07611l53.165344 0l0 48.503937l-53.165344 0z" fill-rule="evenodd"/><path fill="#000000" fill-opacity="0.0" d="m401.7533 241.58005l53.165344 0l0 48.503937l-53.165344 0z" fill-rule="evenodd"/><path stroke="#e39774" stroke-width="2.0" stroke-linejoin="round" stroke-linecap="butt" d="m401.7533 241.58005l53.165344 0l0 48.503937l-53.165344 0z" fill-rule="evenodd"/><path fill="#000000" fill-opacity="0.0" d="m401.7533 290.08398l53.165344 0l0 48.503937l-53.165344 0z" fill-rule="evenodd"/><path stroke="#e39774" stroke-width="2.0" stroke-linejoin="round" stroke-linecap="butt" d="m401.7533 290.08398l53.165344 0l0 48.503937l-53.165344 0z" fill-rule="evenodd"/><path fill="#000000" fill-opacity="0.0" d="m401.7533 338.58792l53.165344 0l0 48.503937l-53.165344 0z" fill-rule="evenodd"/><path stroke="#e39774" stroke-width="2.0" stroke-linejoin="round" stroke-linecap="butt" d="m401.7533 338.58792l53.165344 0l0 48.503937l-53.165344 0z" fill-rule="evenodd"/><path fill="#000000" fill-opacity="0.0" d="m270.6299 144.57217l53.165375 0l0 48.503937l-53.165375 0z" fill-rule="evenodd"/><path stroke="#000000" stroke-width="2.0" stroke-linejoin="round" stroke-linecap="butt" d="m270.6299 144.57217l53.165375 0l0 48.503937l-53.165375 0z" fill-rule="evenodd"/><path fill="#000000" fill-opacity="0.0" d="m270.6299 193.07611l53.165375 0l0 48.503937l-53.165375 0z" fill-rule="evenodd"/><path stroke="#000000" stroke-width="2.0" stroke-linejoin="round" stroke-linecap="butt" d="m270.6299 193.07611l53.165375 0l0 48.503937l-53.165375 0z" fill-rule="evenodd"/><path fill="#000000" fill-opacity="0.0" d="m270.6299 241.58005l53.165375 0l0 48.503937l-53.165375 0z" fill-rule="evenodd"/><path stroke="#000000" stroke-width="2.0" stroke-linejoin="round" stroke-linecap="butt" d="m270.6299 241.58005l53.165375 0l0 48.503937l-53.165375 0z" fill-rule="evenodd"/><path fill="#000000" fill-opacity="0.0" d="m270.63123 290.08398l53.165375 0l0 48.503937l-53.165375 0z" fill-rule="evenodd"/><path stroke="#000000" stroke-width="2.0" stroke-linejoin="round" stroke-linecap="butt" d="m270.63123 290.08398l53.165375 0l0 48.503937l-53.165375 0z" fill-rule="evenodd"/><path fill="#000000" fill-opacity="0.0" d="m61.559055 71.81628l77.95276 48.503937" fill-rule="evenodd"/><path stroke="#326273" stroke-width="2.0" stroke-linejoin="round" stroke-linecap="butt" d="m61.559055 71.81628l77.95276 48.503937" fill-rule="evenodd"/><path fill="#000000" fill-opacity="0.0" d="m61.559055 411.34384l77.95276 -48.503937" fill-rule="evenodd"/><path stroke="#326273" stroke-width="2.0" stroke-linejoin="round" stroke-linecap="butt" d="m61.559055 411.34384l77.95276 -48.503937" fill-rule="evenodd"/><path fill="#000000" fill-opacity="0.0" d="m61.559055 71.81628l77.95276 291.02362" fill-rule="evenodd"/><path stroke="#326273" stroke-width="2.0" stroke-linejoin="round" stroke-linecap="butt" stroke-dasharray="8.0,6.0" d="m61.559055 71.81628l77.95276 291.02362" fill-rule="evenodd"/><path fill="#000000" fill-opacity="0.0" d="m139.51181 120.32021l-77.95276 291.02362" fill-rule="evenodd"/><path stroke="#326273" stroke-width="2.0" stroke-linejoin="round" stroke-linecap="butt" stroke-dasharray="8.0,6.0" d="m139.51181 120.32021l-77.95276 291.02362" fill-rule="evenodd"/><path fill="#000000" fill-opacity="0.0" d="m192.67717 120.32021l77.95274 48.50393" fill-rule="evenodd"/><path stroke="#326273" stroke-width="2.0" stroke-linejoin="round" stroke-linecap="butt" d="m192.67717 120.32021l77.95274 48.50393" fill-rule="evenodd"/><path fill="#000000" fill-opacity="0.0" d="m192.67717 362.8399l77.95274 -48.503937" fill-rule="evenodd"/><path stroke="#326273" stroke-width="2.0" stroke-linejoin="round" stroke-linecap="butt" d="m192.67717 362.8399l77.95274 -48.503937" fill-rule="evenodd"/><path fill="#000000" fill-opacity="0.0" d="m192.67717 120.32021l77.95274 194.01575" fill-rule="evenodd"/><path stroke="#326273" stroke-width="2.0" stroke-linejoin="round" stroke-linecap="butt" stroke-dasharray="8.0,6.0" d="m192.67717 120.32021l77.95274 194.01575" fill-rule="evenodd"/><path fill="#000000" fill-opacity="0.0" d="m270.6299 168.82414l-77.95274 194.01576" fill-rule="evenodd"/><path stroke="#326273" stroke-width="2.0" stroke-linejoin="round" stroke-linecap="butt" stroke-dasharray="8.0,6.0" d="m270.6299 168.82414l-77.95274 194.01576" fill-rule="evenodd"/><path fill="#000000" fill-opacity="0.0" d="m532.87665 47.564304l53.165344 0l0 48.50394l-53.165344 0z" fill-rule="evenodd"/><path stroke="#e39774" stroke-width="2.0" stroke-linejoin="round" stroke-linecap="butt" d="m532.87665 47.564304l53.165344 0l0 48.50394l-53.165344 0z" fill-rule="evenodd"/><path fill="#000000" fill-opacity="0.0" d="m532.87665 96.068245l53.165344 0l0 48.50393l-53.165344 0z" fill-rule="evenodd"/><path stroke="#e39774" stroke-width="2.0" stroke-linejoin="round" stroke-linecap="butt" d="m532.87665 96.068245l53.165344 0l0 48.50393l-53.165344 0z" fill-rule="evenodd"/><path fill="#000000" fill-opacity="0.0" d="m532.87665 144.57217l53.165344 0l0 48.503937l-53.165344 0z" fill-rule="evenodd"/><path stroke="#e39774" stroke-width="2.0" stroke-linejoin="round" stroke-linecap="butt" d="m532.87665 144.57217l53.165344 0l0 48.503937l-53.165344 0z" fill-rule="evenodd"/><path fill="#000000" fill-opacity="0.0" d="m532.87665 193.07611l53.165344 0l0 48.503937l-53.165344 0z" fill-rule="evenodd"/><path stroke="#e39774" stroke-width="2.0" stroke-linejoin="round" stroke-linecap="butt" d="m532.87665 193.07611l53.165344 0l0 48.503937l-53.165344 0z" fill-rule="evenodd"/><path fill="#000000" fill-opacity="0.0" d="m532.87665 241.58005l53.165344 0l0 48.503937l-53.165344 0z" fill-rule="evenodd"/><path stroke="#e39774" stroke-width="2.0" stroke-linejoin="round" stroke-linecap="butt" d="m532.87665 241.58005l53.165344 0l0 48.503937l-53.165344 0z" fill-rule="evenodd"/><path fill="#000000" fill-opacity="0.0" d="m532.87665 290.08398l53.165344 0l0 48.503937l-53.165344 0z" fill-rule="evenodd"/><path stroke="#e39774" stroke-width="2.0" stroke-linejoin="round" stroke-linecap="butt" d="m532.87665 290.08398l53.165344 0l0 48.503937l-53.165344 0z" fill-rule="evenodd"/><path fill="#000000" fill-opacity="0.0" d="m532.87665 338.58792l53.165344 0l0 48.503937l-53.165344 0z" fill-rule="evenodd"/><path stroke="#e39774" stroke-width="2.0" stroke-linejoin="round" stroke-linecap="butt" d="m532.87665 338.58792l53.165344 0l0 48.503937l-53.165344 0z" fill-rule="evenodd"/><path fill="#000000" fill-opacity="0.0" d="m532.87665 387.09186l53.165344 0l0 48.503937l-53.165344 0z" fill-rule="evenodd"/><path stroke="#e39774" stroke-width="2.0" stroke-linejoin="round" stroke-linecap="butt" d="m532.87665 387.09186l53.165344 0l0 48.503937l-53.165344 0z" fill-rule="evenodd"/><path fill="#000000" fill-opacity="0.0" d="m323.7953 168.82414l77.95273 -48.50393" fill-rule="evenodd"/><path stroke="#e39774" stroke-width="2.0" stroke-linejoin="round" stroke-linecap="butt" d="m323.7953 168.82414l77.95273 -48.50393" fill-rule="evenodd"/><path fill="#000000" fill-opacity="0.0" d="m454.91864 120.32021l77.95276 -48.503937" fill-rule="evenodd"/><path stroke="#e39774" stroke-width="2.0" stroke-linejoin="round" stroke-linecap="butt" d="m454.91864 120.32021l77.95276 -48.503937" fill-rule="evenodd"/><path fill="#000000" fill-opacity="0.0" d="m323.7966 314.33597l77.95273 48.503937" fill-rule="evenodd"/><path stroke="#e39774" stroke-width="2.0" stroke-linejoin="round" stroke-linecap="butt" d="m323.7966 314.33597l77.95273 48.503937" fill-rule="evenodd"/><path fill="#000000" fill-opacity="0.0" d="m454.91864 362.8399l77.95276 48.503937" fill-rule="evenodd"/><path stroke="#e39774" stroke-width="2.0" stroke-linejoin="round" stroke-linecap="butt" d="m454.91864 362.8399l77.95276 48.503937" fill-rule="evenodd"/><path fill="#000000" fill-opacity="0.0" d="m323.7953 168.82414l77.95273 194.01576" fill-rule="evenodd"/><path stroke="#e39774" stroke-width="2.0" stroke-linejoin="round" stroke-linecap="butt" stroke-dasharray="8.0,6.0" d="m323.7953 168.82414l77.95273 194.01576" fill-rule="evenodd"/><path fill="#000000" fill-opacity="0.0" d="m323.7966 314.33597l77.95273 -194.01575" fill-rule="evenodd"/><path stroke="#e39774" stroke-width="2.0" stroke-linejoin="round" stroke-linecap="butt" stroke-dasharray="8.0,6.0" d="m323.7966 314.33597l77.95273 -194.01575" fill-rule="evenodd"/><path fill="#000000" fill-opacity="0.0" d="m454.91864 120.32021l77.95276 291.02362" fill-rule="evenodd"/><path stroke="#e39774" stroke-width="2.0" stroke-linejoin="round" stroke-linecap="butt" stroke-dasharray="8.0,6.0" d="m454.91864 120.32021l77.95276 291.02362" fill-rule="evenodd"/><path fill="#000000" fill-opacity="0.0" d="m454.91864 362.8399l77.95276 -291.02362" fill-rule="evenodd"/><path stroke="#e39774" stroke-width="2.0" stroke-linejoin="round" stroke-linecap="butt" stroke-dasharray="8.0,6.0" d="m454.91864 362.8399l77.95276 -291.02362" fill-rule="evenodd"/><path fill="#000000" fill-opacity="0.0" d="m517.08136 5.5485563l84.75592 0l0 42.015747l-84.75592 0z" fill-rule="evenodd"/><path fill="#000000" d="m529.7095 25.874805q0 -2.046875 0.609375 -3.421875q0.453125 -1.03125 1.234375 -1.828125q0.796875 -0.8125 1.734375 -1.203125q1.25 -0.53125 2.875 -0.53125q2.953125 0 4.71875 1.828125q1.78125 1.828125 1.78125 5.09375q0 3.234375 -1.765625 5.0625q-1.75 1.828125 -4.6875 1.828125q-2.984375 0 -4.75 -1.8125q-1.75 -1.828125 -1.75 -5.015625zm2.78125 -0.09375q0 2.265625 1.046875 3.4375q1.046875 1.171875 2.65625 1.171875q1.609375 0 2.640625 -1.15625q1.046875 -1.171875 1.046875 -3.484375q0 -2.296875 -1.015625 -3.421875q-1.0 -1.140625 -2.671875 -1.140625q-1.671875 0 -2.6875 1.15625q-1.015625 1.140625 -1.015625 3.4375zm18.620789 6.6875l0 -1.453125q-0.53125 0.78125 -1.390625 1.234375q-0.859375 0.4375 -1.8125 0.4375q-0.96875 0 -1.75 -0.421875q-0.765625 -0.4375 -1.125 -1.203125q-0.34375 -0.78125 -0.34375 -2.140625l0 -6.125l2.5625 0l0 4.4375q0 2.046875 0.140625 2.515625q0.140625 0.453125 0.515625 0.71875q0.375 0.265625 0.953125 0.265625q0.65625 0 1.171875 -0.359375q0.515625 -0.359375 0.703125 -0.890625q0.203125 -0.53125 0.203125 -2.609375l0 -4.078125l2.546875 0l0 9.671875l-2.375 0zm9.474121 -9.671875l0 2.03125l-1.75 0l0 3.90625q0 1.1875 0.046875 1.390625q0.046875 0.1875 0.21875 0.3125q0.1875 0.125 0.4375 0.125q0.359375 0 1.03125 -0.25l0.21875 2.0q-0.890625 0.375 -2.015625 0.375q-0.703125 0 -1.265625 -0.234375q-0.546875 -0.234375 -0.8125 -0.59375q-0.25 -0.375 -0.34375 -1.0q-0.09375 -0.453125 -0.09375 -1.8125l0 -4.21875l-1.171875 0l0 -2.03125l1.171875 0l0 -1.921875l2.578125 -1.5l0 3.421875l1.75 0zm1.6970215 0l2.390625 0l0 1.421875q0.46875 -0.734375 1.25 -1.1875q0.796875 -0.453125 1.765625 -0.453125q1.6875 0 2.859375 1.328125q1.171875 1.3125 1.171875 3.671875q0 2.421875 -1.1875 3.765625q-1.1875 1.34375 -2.859375 1.34375q-0.8125 0 -1.46875 -0.3125q-0.640625 -0.328125 -1.359375 -1.09375l0 4.875l-2.5625 0l0 -13.359375zm2.53125 4.671875q0 1.625 0.640625 2.40625q0.65625 0.78125 1.578125 0.78125q0.90625 0 1.484375 -0.71875q0.59375 -0.71875 0.59375 -2.34375q0 -1.515625 -0.609375 -2.25q-0.609375 -0.75 -1.515625 -0.75q-0.9375 0 -1.5625 0.734375q-0.609375 0.71875 -0.609375 2.140625zm15.302246 5.0l0 -1.453125q-0.53125 0.78125 -1.390625 1.234375q-0.859375 0.4375 -1.8125 0.4375q-0.96875 0 -1.75 -0.421875q-0.765625 -0.4375 -1.125 -1.203125q-0.34375 -0.78125 -0.34375 -2.140625l0 -6.125l2.5625 0l0 4.4375q0 2.046875 0.140625 2.515625q0.140625 0.453125 0.515625 0.71875q0.375 0.265625 0.953125 0.265625q0.65625 0 1.171875 -0.359375q0.515625 -0.359375 0.703125 -0.890625q0.203125 -0.53125 0.203125 -2.609375l0 -4.078125l2.546875 0l0 9.671875l-2.375 0zm9.474121 -9.671875l0 2.03125l-1.75 0l0 3.90625q0 1.1875 0.046875 1.390625q0.046875 0.1875 0.21875 0.3125q0.1875 0.125 0.4375 0.125q0.359375 0 1.03125 -0.25l0.21875 2.0q-0.890625 0.375 -2.015625 0.375q-0.703125 0 -1.265625 -0.234375q-0.546875 -0.234375 -0.8125 -0.59375q-0.25 -0.375 -0.34375 -1.0q-0.09375 -0.453125 -0.09375 -1.8125l0 -4.21875l-1.171875 0l0 -2.03125l1.171875 0l0 -1.921875l2.578125 -1.5l0 3.421875l1.75 0z" fill-rule="nonzero"/><path fill="#000000" fill-opacity="0.0" d="m1.1023622 5.5485563l67.74803 0l0 42.015747l-67.74803 0z" fill-rule="evenodd"/><path fill="#000000" d="m13.465667 32.468555l0 -13.359375l2.687499 0l0 13.359375l-2.687499 0zm14.042678 0l-2.5625 0l0 -4.9375q0 -1.5625 -0.171875 -2.015625q-0.15625 -0.46875 -0.53125 -0.71875q-0.359375 -0.265625 -0.875 -0.265625q-0.671875 0 -1.203125 0.375q-0.53125 0.359375 -0.734375 0.96875q-0.1875 0.59375 -0.1875 2.21875l0 4.375l-2.546875 0l0 -9.671875l2.375 0l0 1.421875q1.265625 -1.640625 3.1875 -1.640625q0.84375 0 1.546875 0.3125q0.703125 0.296875 1.0625 0.78125q0.359375 0.46875 0.5 1.078125q0.140625 0.59375 0.140625 1.703125l0 6.015625zm2.5209808 -9.671875l2.390627 0l0 1.421875q0.46875 -0.734375 1.25 -1.1875q0.796875 -0.453125 1.765625 -0.453125q1.6875 0 2.859375 1.328125q1.171875 1.3125 1.171875 3.671875q0 2.421875 -1.1875 3.765625q-1.1875 1.34375 -2.859375 1.34375q-0.8125 0 -1.46875 -0.3125q-0.640625 -0.328125 -1.359375 -1.09375l0 4.875l-2.562502 0l0 -13.359375zm2.531252 4.671875q0 1.625 0.640625 2.40625q0.65625 0.78125 1.578125 0.78125q0.90625 0 1.484375 -0.71875q0.59375 -0.71875 0.59375 -2.34375q0 -1.515625 -0.609375 -2.25q-0.609375 -0.75 -1.515625 -0.75q-0.9375 0 -1.5625 0.734375q-0.609375 0.71875 -0.609375 2.140625zm15.302231 5.0l0 -1.453125q-0.53125 0.78125 -1.390625 1.234375q-0.859375 0.4375 -1.8125 0.4375q-0.96875 0 -1.75 -0.421875q-0.765625 -0.4375 -1.125 -1.203125q-0.34375 -0.78125 -0.34375 -2.140625l0 -6.125l2.5625 0l0 4.4375q0 2.046875 0.140625 2.515625q0.140625 0.453125 0.515625 0.71875q0.375 0.265625 0.953125 0.265625q0.65625 0 1.171875 -0.359375q0.515625 -0.359375 0.703125 -0.890625q0.203125 -0.53125 0.203125 -2.609375l0 -4.078125l2.546875 0l0 9.671875l-2.375 0zm9.474106 -9.671875l0 2.03125l-1.75 0l0 3.90625q0 1.1875 0.046875 1.390625q0.046875 0.1875 0.21875 0.3125q0.1875 0.125 0.4375 0.125q0.359375 0 1.03125 -0.25l0.21875 2.0q-0.890625 0.375 -2.015625 0.375q-0.703125 0 -1.265625 -0.234375q-0.546875 -0.234375 -0.8125 -0.59375q-0.25 -0.375 -0.34375 -1.0q-0.09375 -0.453125 -0.09375 -1.8125l0 -4.21875l-1.171875 0l0 -2.03125l1.171875 0l0 -1.921875l2.578125 -1.5l0 3.421875l1.75 0z" fill-rule="nonzero"/><path fill="#000000" fill-opacity="0.0" d="m254.83727 71.81628l84.755905 0l0 64.62992l-84.755905 0z" fill-rule="evenodd"/><path fill="#000000" d="m270.66833 98.736275l0 -13.25l2.6875 0l0 11.0l6.703125 0l0 2.25l-9.390625 0zm13.208496 -6.71875l-2.328125 -0.421875q0.40625 -1.40625 1.359375 -2.078125q0.953125 -0.671875 2.84375 -0.671875q1.703125 0 2.546875 0.40625q0.84375 0.40625 1.171875 1.03125q0.34375 0.625 0.34375 2.28125l-0.015625 3.0q0 1.265625 0.109375 1.875q0.125 0.609375 0.46875 1.296875l-2.53125 0q-0.109375 -0.25 -0.25 -0.75q-0.0625 -0.234375 -0.09375 -0.3125q-0.65625 0.640625 -1.40625 0.96875q-0.734375 0.3125 -1.59375 0.3125q-1.484375 0 -2.34375 -0.8125q-0.859375 -0.8125 -0.859375 -2.046875q0 -0.828125 0.390625 -1.46875q0.390625 -0.640625 1.09375 -0.96875q0.703125 -0.34375 2.03125 -0.609375q1.796875 -0.328125 2.484375 -0.625l0 -0.25q0 -0.75 -0.359375 -1.0625q-0.359375 -0.3125 -1.375 -0.3125q-0.6875 0 -1.078125 0.28125q-0.375 0.265625 -0.609375 0.9375zm3.421875 2.078125q-0.484375 0.15625 -1.5625 0.390625q-1.0625 0.21875 -1.390625 0.4375q-0.5 0.359375 -0.5 0.90625q0 0.53125 0.40625 0.9375q0.40625 0.390625 1.015625 0.390625q0.703125 0 1.328125 -0.46875q0.46875 -0.34375 0.609375 -0.84375q0.09375 -0.328125 0.09375 -1.25l0 -0.5zm9.485077 -5.03125l0 2.03125l-1.75 0l0 3.90625q0 1.1875 0.046875 1.390625q0.046875 0.1875 0.21875 0.3125q0.1875 0.125 0.4375 0.125q0.359375 0 1.03125 -0.25l0.21875 2.0q-0.890625 0.375 -2.015625 0.375q-0.703125 0 -1.265625 -0.234375q-0.546875 -0.234375 -0.8125 -0.59375q-0.25 -0.375 -0.34375 -1.0q-0.09375 -0.453125 -0.09375 -1.8125l0 -4.21875l-1.171875 0l0 -2.03125l1.171875 0l0 -1.921875l2.578125 -1.5l0 3.421875l1.75 0zm7.368927 6.59375l2.546875 0.421875q-0.484375 1.40625 -1.546875 2.140625q-1.0625 0.734375 -2.65625 0.734375q-2.515625 0 -3.734375 -1.65625q-0.953125 -1.3125 -0.953125 -3.328125q0 -2.40625 1.25 -3.765625q1.265625 -1.359375 3.1875 -1.359375q2.15625 0 3.40625 1.421875q1.25 1.421875 1.1875 4.375l-6.40625 0q0.03125 1.140625 0.609375 1.78125q0.59375 0.625 1.484375 0.625q0.59375 0 1.0 -0.328125q0.421875 -0.328125 0.625 -1.0625zm0.15625 -2.59375q-0.03125 -1.109375 -0.578125 -1.6875q-0.546875 -0.578125 -1.328125 -0.578125q-0.84375 0 -1.390625 0.609375q-0.546875 0.609375 -0.53125 1.65625l3.828125 0zm13.422607 5.671875l-2.5625 0l0 -4.9375q0 -1.5625 -0.171875 -2.015625q-0.15625 -0.46875 -0.53125 -0.71875q-0.359375 -0.265625 -0.875 -0.265625q-0.671875 0 -1.203125 0.375q-0.53125 0.359375 -0.734375 0.96875q-0.1875 0.59375 -0.1875 2.21875l0 4.375l-2.546875 0l0 -9.671875l2.375 0l0 1.421875q1.265625 -1.640625 3.1875 -1.640625q0.84375 0 1.546875 0.3125q0.703125 0.296875 1.0625 0.78125q0.359375 0.46875 0.5 1.078125q0.140625 0.59375 0.140625 1.703125l0 6.015625zm7.0365906 -9.671875l0 2.03125l-1.75 0l0 3.90625q0 1.1875 0.046875 1.390625q0.046875 0.1875 0.21875 0.3125q0.1875 0.125 0.4375 0.125q0.359375 0 1.03125 -0.25l0.21875 2.0q-0.890625 0.375 -2.015625 0.375q-0.703125 0 -1.265625 -0.234375q-0.546875 -0.234375 -0.8125 -0.59375q-0.25 -0.375 -0.34375 -1.0q-0.09375 -0.453125 -0.09375 -1.8125l0 -4.21875l-1.171875 0l0 -2.03125l1.171875 0l0 -1.921875l2.578125 -1.5l0 3.421875l1.75 0z" fill-rule="nonzero"/><path fill="#000000" d="m270.40375 116.79252l2.625 -0.25q0.234375 1.3125 0.953125 1.9375q0.734375 0.609375 1.96875 0.609375q1.296875 0 1.953125 -0.546875q0.671875 -0.546875 0.671875 -1.28125q0 -0.484375 -0.28125 -0.8125q-0.28125 -0.328125 -0.96875 -0.578125q-0.484375 -0.15625 -2.171875 -0.578125q-2.15625 -0.546875 -3.03125 -1.328125q-1.234375 -1.09375 -1.234375 -2.6875q0 -1.015625 0.578125 -1.90625q0.578125 -0.890625 1.65625 -1.34375q1.09375 -0.46875 2.640625 -0.46875q2.515625 0 3.78125 1.109375q1.28125 1.09375 1.34375 2.9375l-2.703125 0.109375q-0.171875 -1.03125 -0.75 -1.46875q-0.5625 -0.453125 -1.703125 -0.453125q-1.171875 0 -1.84375 0.46875q-0.421875 0.3125 -0.421875 0.84375q0 0.46875 0.40625 0.796875q0.5 0.4375 2.46875 0.90625q1.96875 0.453125 2.90625 0.953125q0.953125 0.5 1.484375 1.359375q0.53125 0.859375 0.53125 2.125q0 1.15625 -0.640625 2.15625q-0.640625 1.0 -1.8125 1.484375q-1.15625 0.484375 -2.890625 0.484375q-2.53125 0 -3.890625 -1.171875q-1.359375 -1.171875 -1.625 -3.40625zm13.037323 -5.328125l2.390625 0l0 1.421875q0.46875 -0.734375 1.25 -1.1875q0.796875 -0.453125 1.765625 -0.453125q1.6875 0 2.859375 1.328125q1.171875 1.3125 1.171875 3.671875q0 2.421875 -1.1875 3.765625q-1.1875 1.34375 -2.859375 1.34375q-0.8125 0 -1.46875 -0.3125q-0.640625 -0.328125 -1.359375 -1.09375l0 4.875l-2.5625 0l0 -13.359375zm2.53125 4.671875q0 1.625 0.640625 2.40625q0.65625 0.78125 1.578125 0.78125q0.90625 0 1.484375 -0.71875q0.59375 -0.71875 0.59375 -2.34375q0 -1.515625 -0.609375 -2.25q-0.609375 -0.75 -1.515625 -0.75q-0.9375 0 -1.5625 0.734375q-0.609375 0.71875 -0.609375 2.140625zm10.849091 -1.71875l-2.328125 -0.421875q0.40625 -1.40625 1.359375 -2.078125q0.953125 -0.671875 2.84375 -0.671875q1.703125 0 2.546875 0.40625q0.84375 0.40625 1.171875 1.03125q0.34375 0.625 0.34375 2.28125l-0.015625 3.0q0 1.265625 0.109375 1.875q0.125 0.609375 0.46875 1.296875l-2.53125 0q-0.109375 -0.25 -0.25 -0.75q-0.0625 -0.234375 -0.09375 -0.3125q-0.65625 0.640625 -1.40625 0.96875q-0.734375 0.3125 -1.59375 0.3125q-1.484375 0 -2.34375 -0.8125q-0.859375 -0.8125 -0.859375 -2.046875q0 -0.828125 0.390625 -1.46875q0.390625 -0.640625 1.09375 -0.96875q0.703125 -0.34375 2.03125 -0.609375q1.796875 -0.328125 2.484375 -0.625l0 -0.25q0 -0.75 -0.359375 -1.0625q-0.359375 -0.3125 -1.375 -0.3125q-0.6875 0 -1.078125 0.28125q-0.375 0.265625 -0.609375 0.9375zm3.421875 2.078125q-0.484375 0.15625 -1.5625 0.390625q-1.0625 0.21875 -1.390625 0.4375q-0.5 0.359375 -0.5 0.90625q0 0.53125 0.40625 0.9375q0.40625 0.390625 1.015625 0.390625q0.703125 0 1.328125 -0.46875q0.46875 -0.34375 0.609375 -0.84375q0.09375 -0.328125 0.09375 -1.25l0 -0.5zm13.485107 -2.171875l-2.53125 0.453125q-0.125 -0.75 -0.578125 -1.125q-0.453125 -0.390625 -1.171875 -0.390625q-0.953125 0 -1.53125 0.65625q-0.5625 0.65625 -0.5625 2.203125q0 1.734375 0.578125 2.4375q0.578125 0.703125 1.546875 0.703125q0.734375 0 1.203125 -0.40625q0.46875 -0.421875 0.65625 -1.421875l2.515625 0.421875q-0.390625 1.734375 -1.515625 2.625q-1.109375 0.875 -2.96875 0.875q-2.125 0 -3.390625 -1.328125q-1.25 -1.34375 -1.25 -3.71875q0 -2.390625 1.265625 -3.71875q1.265625 -1.34375 3.421875 -1.34375q1.765625 0 2.796875 0.765625q1.046875 0.75 1.515625 2.3125zm7.531952 3.734375l2.546875 0.421875q-0.484375 1.40625 -1.546875 2.140625q-1.0625 0.734375 -2.65625 0.734375q-2.515625 0 -3.734375 -1.65625q-0.953125 -1.3125 -0.953125 -3.328125q0 -2.40625 1.25 -3.765625q1.265625 -1.359375 3.1875 -1.359375q2.15625 0 3.40625 1.421875q1.25 1.421875 1.1875 4.375l-6.40625 0q0.03125 1.140625 0.609375 1.78125q0.59375 0.625 1.484375 0.625q0.59375 0 1.0 -0.328125q0.421875 -0.328125 0.625 -1.0625zm0.15625 -2.59375q-0.03125 -1.109375 -0.578125 -1.6875q-0.546875 -0.578125 -1.328125 -0.578125q-0.84375 0 -1.390625 0.609375q-0.546875 0.609375 -0.53125 1.65625l3.828125 0z" fill-rule="nonzero"/><path fill="#000000" fill-opacity="0.0" d="m106.67716 406.67978l118.83465 0l0 42.015747l-118.83465 0z" fill-rule="evenodd"/><path fill="#326273" d="m120.808685 433.5998l0 -13.359375l9.90625 0l0 2.265625l-7.21875 0l0 2.953125l6.71875 0l0 2.25l-6.71875 0l0 3.640625l7.46875 0l0 2.25l-10.15625 0zm12.474823 0l0 -13.359375l2.625 0l5.453125 8.921875l0 -8.921875l2.515625 0l0 13.359375l-2.703125 0l-5.390625 -8.703125l0 8.703125l-2.5 0zm21.988571 -4.90625l2.609375 0.828125q-0.59375 2.1875 -2.0 3.25q-1.390625 1.0625 -3.546875 1.0625q-2.65625 0 -4.375 -1.8125q-1.703125 -1.828125 -1.703125 -4.984375q0 -3.328125 1.71875 -5.171875q1.71875 -1.84375 4.515625 -1.84375q2.453125 0 3.984375 1.4375q0.921875 0.859375 1.375 2.46875l-2.671875 0.640625q-0.234375 -1.046875 -0.984375 -1.640625q-0.75 -0.609375 -1.828125 -0.609375q-1.484375 0 -2.421875 1.078125q-0.921875 1.0625 -0.921875 3.4375q0 2.53125 0.90625 3.609375q0.921875 1.078125 2.375 1.078125q1.078125 0 1.84375 -0.671875q0.78125 -0.6875 1.125 -2.15625zm4.379196 -1.6875q0 -2.046875 0.609375 -3.421875q0.453125 -1.03125 1.234375 -1.828125q0.796875 -0.8125 1.734375 -1.203125q1.25 -0.53125 2.875 -0.53125q2.953125 0 4.71875 1.828125q1.78125 1.828125 1.78125 5.09375q0 3.234375 -1.765625 5.0625q-1.75 1.828125 -4.6875 1.828125q-2.984375 0 -4.75 -1.8125q-1.75 -1.828125 -1.75 -5.015625zm2.78125 -0.09375q0 2.265625 1.046875 3.4375q1.046875 1.171875 2.65625 1.171875q1.609375 0 2.640625 -1.15625q1.046875 -1.171875 1.046875 -3.484375q0 -2.296875 -1.015625 -3.421875q-1.0 -1.140625 -2.671875 -1.140625q-1.671875 0 -2.6875 1.15625q-1.015625 1.140625 -1.015625 3.4375zm12.261429 -6.671875l4.9375 0q1.65625 0 2.53125 0.265625q1.1875 0.34375 2.015625 1.234375q0.84375 0.875 1.28125 2.15625q0.4375 1.28125 0.4375 3.15625q0 1.640625 -0.40625 2.84375q-0.5 1.453125 -1.4375 2.359375q-0.703125 0.671875 -1.890625 1.0625q-0.890625 0.28125 -2.390625 0.28125l-5.078125 0l0 -13.359375zm2.703125 2.265625l0 8.84375l2.015625 0q1.125 0 1.625 -0.125q0.65625 -0.171875 1.078125 -0.5625q0.4375 -0.390625 0.703125 -1.28125q0.28125 -0.90625 0.28125 -2.453125q0 -1.546875 -0.28125 -2.375q-0.265625 -0.828125 -0.765625 -1.28125q-0.484375 -0.46875 -1.234375 -0.640625q-0.5625 -0.125 -2.21875 -0.125l-1.203125 0zm10.785446 11.09375l0 -13.359375l9.90625 0l0 2.265625l-7.21875 0l0 2.953125l6.71875 0l0 2.25l-6.71875 0l0 3.640625l7.46875 0l0 2.25l-10.15625 0zm12.443573 0l0 -13.359375l5.6875 0q2.140625 0 3.109375 0.359375q0.96875 0.359375 1.546875 1.28125q0.578125 0.921875 0.578125 2.109375q0 1.5 -0.890625 2.484375q-0.875 0.96875 -2.625 1.234375q0.875 0.5 1.4375 1.125q0.578125 0.609375 1.53125 2.15625l1.640625 2.609375l-3.234375 0l-1.9375 -2.90625q-1.046875 -1.5625 -1.4375 -1.96875q-0.375 -0.40625 -0.8125 -0.546875q-0.421875 -0.15625 -1.34375 -0.15625l-0.546875 0l0 5.578125l-2.703125 0zm2.703125 -7.703125l2.0 0q1.9375 0 2.421875 -0.15625q0.484375 -0.171875 0.75 -0.578125q0.28125 -0.40625 0.28125 -1.0q0 -0.671875 -0.359375 -1.078125q-0.359375 -0.421875 -1.015625 -0.53125q-0.328125 -0.046875 -1.96875 -0.046875l-2.109375 0l0 3.390625z" fill-rule="nonzero"/><path fill="#000000" fill-opacity="0.0" d="m365.16534 406.67978l118.834656 0l0 42.015747l-118.834656 0z" fill-rule="evenodd"/><path fill="#e39774" d="m379.28125 420.24042l4.9375 0q1.65625 0 2.53125 0.265625q1.1875 0.34375 2.015625 1.234375q0.84375 0.875 1.28125 2.15625q0.4375 1.28125 0.4375 3.15625q0 1.640625 -0.40625 2.84375q-0.5 1.453125 -1.4375 2.359375q-0.703125 0.671875 -1.890625 1.0625q-0.890625 0.28125 -2.390625 0.28125l-5.078125 0l0 -13.359375zm2.703125 2.265625l0 8.84375l2.015625 0q1.125 0 1.625 -0.125q0.65625 -0.171875 1.078125 -0.5625q0.4375 -0.390625 0.703125 -1.28125q0.28125 -0.90625 0.28125 -2.453125q0 -1.546875 -0.28125 -2.375q-0.265625 -0.828125 -0.765625 -1.28125q-0.484375 -0.46875 -1.234375 -0.640625q-0.5625 -0.125 -2.21875 -0.125l-1.203125 0zm10.785431 11.09375l0 -13.359375l9.90625 0l0 2.265625l-7.21875 0l0 2.953125l6.71875 0l0 2.25l-6.71875 0l0 3.640625l7.46875 0l0 2.25l-10.15625 0zm20.990448 -4.90625l2.609375 0.828125q-0.59375 2.1875 -2.0 3.25q-1.390625 1.0625 -3.546875 1.0625q-2.65625 0 -4.375 -1.8125q-1.703125 -1.828125 -1.703125 -4.984375q0 -3.328125 1.71875 -5.171875q1.71875 -1.84375 4.515625 -1.84375q2.453125 0 3.984375 1.4375q0.921875 0.859375 1.375 2.46875l-2.671875 0.640625q-0.234375 -1.046875 -0.984375 -1.640625q-0.75 -0.609375 -1.828125 -0.609375q-1.484375 0 -2.421875 1.078125q-0.921875 1.0625 -0.921875 3.4375q0 2.53125 0.90625 3.609375q0.921875 1.078125 2.375 1.078125q1.078125 0 1.84375 -0.671875q0.78125 -0.6875 1.125 -2.15625zm4.3792114 -1.6875q0 -2.046875 0.609375 -3.421875q0.453125 -1.03125 1.234375 -1.828125q0.796875 -0.8125 1.734375 -1.203125q1.25 -0.53125 2.875 -0.53125q2.953125 0 4.71875 1.828125q1.78125 1.828125 1.78125 5.09375q0 3.234375 -1.765625 5.0625q-1.75 1.828125 -4.6875 1.828125q-2.984375 0 -4.75 -1.8125q-1.75 -1.828125 -1.75 -5.015625zm2.78125 -0.09375q0 2.265625 1.046875 3.4375q1.046875 1.171875 2.65625 1.171875q1.609375 0 2.640625 -1.15625q1.046875 -1.171875 1.046875 -3.484375q0 -2.296875 -1.015625 -3.421875q-1.0 -1.140625 -2.671875 -1.140625q-1.671875 0 -2.6875 1.15625q-1.015625 1.140625 -1.015625 3.4375zm12.261414 -6.671875l4.9375 0q1.65625 0 2.53125 0.265625q1.1875 0.34375 2.015625 1.234375q0.84375 0.875 1.28125 2.15625q0.4375 1.28125 0.4375 3.15625q0 1.640625 -0.40625 2.84375q-0.5 1.453125 -1.4375 2.359375q-0.703125 0.671875 -1.890625 1.0625q-0.890625 0.28125 -2.390625 0.28125l-5.078125 0l0 -13.359375zm2.703125 2.265625l0 8.84375l2.015625 0q1.125 0 1.625 -0.125q0.65625 -0.171875 1.078125 -0.5625q0.4375 -0.390625 0.703125 -1.28125q0.28125 -0.90625 0.28125 -2.453125q0 -1.546875 -0.28125 -2.375q-0.265625 -0.828125 -0.765625 -1.28125q-0.484375 -0.46875 -1.234375 -0.640625q-0.5625 -0.125 -2.21875 -0.125l-1.203125 0zm10.785461 11.09375l0 -13.359375l9.90625 0l0 2.265625l-7.21875 0l0 2.953125l6.71875 0l0 2.25l-6.71875 0l0 3.640625l7.46875 0l0 2.25l-10.15625 0zm12.443573 0l0 -13.359375l5.6875 0q2.140625 0 3.109375 0.359375q0.96875 0.359375 1.546875 1.28125q0.578125 0.921875 0.578125 2.109375q0 1.5 -0.890625 2.484375q-0.875 0.96875 -2.625 1.234375q0.875 0.5 1.4375 1.125q0.578125 0.609375 1.53125 2.15625l1.640625 2.609375l-3.234375 0l-1.9375 -2.90625q-1.046875 -1.5625 -1.4375 -1.96875q-0.375 -0.40625 -0.8125 -0.546875q-0.421875 -0.15625 -1.34375 -0.15625l-0.546875 0l0 5.578125l-2.703125 0zm2.703125 -7.703125l2.0 0q1.9375 0 2.421875 -0.15625q0.484375 -0.171875 0.75 -0.578125q0.28125 -0.40625 0.28125 -1.0q0 -0.671875 -0.359375 -1.078125q-0.359375 -0.421875 -1.015625 -0.53125q-0.328125 -0.046875 -1.96875 -0.046875l-2.109375 0l0 3.390625z" fill-rule="nonzero"/></g></svg>